<?xml version="1.0" standalone="no"?>
<!DOCTYPE svg PUBLIC "-//W3C//DTD SVG 20010904//EN"
 "http://www.w3.org/TR/2001/REC-SVG-20010904/DTD/svg10.dtd">
<svg version="1.0" xmlns="http://www.w3.org/2000/svg"
 width="264.000000pt" height="251.000000pt" viewBox="0 0 264.000000 251.000000"
 preserveAspectRatio="xMidYMid meet">
<metadata>
Created by potrace 1.15, written by Peter Selinger 2001-2017
</metadata>
<g transform="translate(0.000000,251.000000) scale(0.100000,-0.100000)"
fill="#000000" stroke="none">
<path d="M1625 2411 c-25 -6 -30 -11 -28 -33 1 -18 -5 -29 -20 -36 -16 -8 -18
-11 -6 -11 18 -1 49 -42 49 -65 0 -8 -10 -17 -22 -19 -21 -4 -21 -4 -2 -6 15
-1 24 -12 32 -38 10 -33 6 -66 -5 -35 -5 14 -33 17 -33 3 0 -5 13 -19 29 -30
16 -12 41 -41 55 -65 l26 -45 -1 -288 c-1 -158 -5 -299 -9 -313 -8 -25 -8 -25
-15 8 -4 18 -12 35 -16 38 -5 3 -9 16 -9 30 0 49 -67 144 -102 144 -4 0 -32
13 -61 30 l-54 30 29 57 c48 101 60 164 59 318 -2 155 -2 157 -74 193 -62 31
-143 38 -204 18 -80 -27 -93 -47 -98 -155 -3 -64 -9 -97 -20 -107 -8 -9 -15
-25 -15 -36 0 -31 22 -98 32 -98 4 0 5 -19 2 -42 -8 -54 -52 -102 -113 -125
-25 -9 -63 -28 -85 -41 -54 -33 -123 -62 -151 -62 -36 0 -89 -77 -104 -152
-12 -57 -46 -149 -59 -157 -5 -3 -10 -19 -10 -36 0 -31 -28 -150 -41 -173 -5
-9 -23 14 -55 70 -27 46 -45 74 -42 63 18 -54 109 -187 176 -255 122 -125 259
-205 431 -252 119 -32 335 -32 459 1 104 27 244 94 327 157 55 41 63 52 69 89
8 57 -2 84 -37 99 l-29 12 25 24 c21 20 24 29 19 64 -4 25 -18 53 -35 71 -18
19 -29 43 -30 60 -2 54 -14 79 -39 85 -24 6 -25 10 -31 100 -4 52 -7 197 -8
321 0 124 -4 229 -8 233 -5 4 -8 29 -9 54 0 26 -9 98 -19 160 -18 108 -20 114
-51 132 -17 11 -33 19 -35 19 -2 -1 -17 -4 -34 -8z"/>
</g>
</svg>
